<svg width="86" height="48" viewBox="0 0 86 48" fill="none" xmlns="http://www.w3.org/2000/svg">
<mask id="path-1-outside-1_117_10" maskUnits="userSpaceOnUse" x="10.2361" y="23.0806" width="76" height="20" fill="black">
<rect fill="white" x="10.2361" y="23.0806" width="76" height="20"/>
<path d="M12.5845 41.0806L16.3919 24.6563H23.3598C25.0022 24.6563 26.3045 25.0628 27.2667 25.8757C28.2456 26.6886 28.735 27.8334 28.735 29.3099C28.735 30.4878 28.4612 31.4998 27.9137 32.3459C27.3663 33.1754 26.6197 33.8224 25.6741 34.2869C24.745 34.7348 23.6833 34.992 22.4888 35.0584L21.568 35.2823H17.7606L18.4574 32.2463H21.6178C22.2316 32.2463 22.7459 32.1385 23.1607 31.9228C23.592 31.7071 23.9238 31.4085 24.1561 31.027C24.3883 30.6288 24.5045 30.1892 24.5045 29.708C24.5045 29.0776 24.2971 28.6214 23.8823 28.3394C23.4676 28.0407 22.9367 27.8914 22.2897 27.8914H19.8261L16.7901 41.0806H12.5845ZM22.9865 41.0806L20.3984 33.9634L24.2805 33.3662L27.3165 41.0806H22.9865ZM37.9469 41.3294C36.3377 41.3294 34.9856 41.0308 33.8907 40.4336C32.8123 39.8197 32.0658 38.9487 31.651 37.8206C31.2362 36.6925 31.2114 35.3487 31.5763 33.7892L33.7165 24.6563H37.9967L35.7819 34.3865C35.616 35.1496 35.616 35.8049 35.7819 36.3524C35.9478 36.8833 36.2548 37.2897 36.7027 37.5718C37.1506 37.8372 37.6981 37.9699 38.3451 37.9699C39.2244 37.9699 39.9046 37.6962 40.3857 37.1487C40.8834 36.6012 41.2567 35.7966 41.5055 34.7348L43.8447 24.6563H48.1001L45.736 34.8593C45.2549 36.9662 44.3922 38.5755 43.148 39.687C41.9037 40.7819 40.17 41.3294 37.9469 41.3294ZM49.0714 41.0806L52.8788 24.6563H57.4577L60.2946 33.6897L61.0163 36.3773H61.0412L61.738 32.9431L63.6541 24.6563H67.4118L63.6044 41.0806H59.1001L56.1637 32.1966L55.4171 29.509H55.3674L54.7452 32.7938L52.854 41.0806H49.0714ZM68.4206 41.0806L72.228 24.6563H79.1959C80.8383 24.6563 82.1406 25.0628 83.1029 25.8757C84.0817 26.6886 84.5711 27.8334 84.5711 29.3099C84.5711 30.4878 84.2974 31.4998 83.7499 32.3459C83.2024 33.1754 82.4558 33.8224 81.5102 34.2869C80.5812 34.7348 79.5194 34.992 78.3249 35.0584L77.4042 35.2823H73.5967L74.2935 32.2463H77.4539C78.0678 32.2463 78.5821 32.1385 78.9968 31.9228C79.4282 31.7071 79.76 31.4085 79.9922 31.027C80.2245 30.6288 80.3406 30.1892 80.3406 29.708C80.3406 29.0776 80.1332 28.6214 79.7185 28.3394C79.3037 28.0407 78.7728 27.8914 78.1258 27.8914H75.6622L72.6262 41.0806H68.4206ZM78.8226 41.0806L76.2346 33.9634L80.1166 33.3662L83.1526 41.0806H78.8226Z"/>
</mask>
<path d="M12.5845 41.0806L16.3919 24.6563H23.3598C25.0022 24.6563 26.3045 25.0628 27.2667 25.8757C28.2456 26.6886 28.735 27.8334 28.735 29.3099C28.735 30.4878 28.4612 31.4998 27.9137 32.3459C27.3663 33.1754 26.6197 33.8224 25.6741 34.2869C24.745 34.7348 23.6833 34.992 22.4888 35.0584L21.568 35.2823H17.7606L18.4574 32.2463H21.6178C22.2316 32.2463 22.7459 32.1385 23.1607 31.9228C23.592 31.7071 23.9238 31.4085 24.1561 31.027C24.3883 30.6288 24.5045 30.1892 24.5045 29.708C24.5045 29.0776 24.2971 28.6214 23.8823 28.3394C23.4676 28.0407 22.9367 27.8914 22.2897 27.8914H19.8261L16.7901 41.0806H12.5845ZM22.9865 41.0806L20.3984 33.9634L24.2805 33.3662L27.3165 41.0806H22.9865ZM37.9469 41.3294C36.3377 41.3294 34.9856 41.0308 33.8907 40.4336C32.8123 39.8197 32.0658 38.9487 31.651 37.8206C31.2362 36.6925 31.2114 35.3487 31.5763 33.7892L33.7165 24.6563H37.9967L35.7819 34.3865C35.616 35.1496 35.616 35.8049 35.7819 36.3524C35.9478 36.8833 36.2548 37.2897 36.7027 37.5718C37.1506 37.8372 37.6981 37.9699 38.3451 37.9699C39.2244 37.9699 39.9046 37.6962 40.3857 37.1487C40.8834 36.6012 41.2567 35.7966 41.5055 34.7348L43.8447 24.6563H48.1001L45.736 34.8593C45.2549 36.9662 44.3922 38.5755 43.148 39.687C41.9037 40.7819 40.17 41.3294 37.9469 41.3294ZM49.0714 41.0806L52.8788 24.6563H57.4577L60.2946 33.6897L61.0163 36.3773H61.0412L61.738 32.9431L63.6541 24.6563H67.4118L63.6044 41.0806H59.1001L56.1637 32.1966L55.4171 29.509H55.3674L54.7452 32.7938L52.854 41.0806H49.0714ZM68.4206 41.0806L72.228 24.6563H79.1959C80.8383 24.6563 82.1406 25.0628 83.1029 25.8757C84.0817 26.6886 84.5711 27.8334 84.5711 29.3099C84.5711 30.4878 84.2974 31.4998 83.7499 32.3459C83.2024 33.1754 82.4558 33.8224 81.5102 34.2869C80.5812 34.7348 79.5194 34.992 78.3249 35.0584L77.4042 35.2823H73.5967L74.2935 32.2463H77.4539C78.0678 32.2463 78.5821 32.1385 78.9968 31.9228C79.4282 31.7071 79.76 31.4085 79.9922 31.027C80.2245 30.6288 80.3406 30.1892 80.3406 29.708C80.3406 29.0776 80.1332 28.6214 79.7185 28.3394C79.3037 28.0407 78.7728 27.8914 78.1258 27.8914H75.6622L72.6262 41.0806H68.4206ZM78.8226 41.0806L76.2346 33.9634L80.1166 33.3662L83.1526 41.0806H78.8226Z" fill="#FF8800"/>
<path d="M12.5845 41.0806L11.4481 40.8171L11.1166 42.2471H12.5845V41.0806ZM16.3919 24.6563V23.4899H15.4649L15.2556 24.3929L16.3919 24.6563ZM27.2667 25.8757L26.5139 26.7668L26.5215 26.7731L27.2667 25.8757ZM27.9137 32.3459L28.8874 32.9884L28.8931 32.9796L27.9137 32.3459ZM25.6741 34.2869L26.1807 35.3377L26.1884 35.3339L25.6741 34.2869ZM22.4888 35.0584L22.4241 33.8937L22.3171 33.8996L22.2131 33.9249L22.4888 35.0584ZM21.568 35.2823V36.4488H21.7079L21.8437 36.4158L21.568 35.2823ZM17.7606 35.2823L16.6237 35.0214L16.2961 36.4488H17.7606V35.2823ZM18.4574 32.2463V31.0798H17.5283L17.3204 31.9854L18.4574 32.2463ZM23.1607 31.9228L22.639 30.8795L22.6307 30.8836L22.6225 30.8879L23.1607 31.9228ZM24.1561 31.027L25.1525 31.6335L25.1582 31.6241L25.1637 31.6147L24.1561 31.027ZM23.8823 28.3394L23.2008 29.286L23.2135 29.2952L23.2264 29.304L23.8823 28.3394ZM19.8261 27.8914V26.7249H18.8976L18.6893 27.6297L19.8261 27.8914ZM16.7901 41.0806V42.2471H17.7186L17.9268 41.3422L16.7901 41.0806ZM22.9865 41.0806L21.8902 41.4792L22.1694 42.2471H22.9865V41.0806ZM20.3984 33.9634L20.2211 32.8105L18.8165 33.0266L19.3022 34.362L20.3984 33.9634ZM24.2805 33.3662L25.366 32.939L25.0246 32.0715L24.1031 32.2132L24.2805 33.3662ZM27.3165 41.0806V42.2471H29.0292L28.402 40.6534L27.3165 41.0806ZM13.7208 41.344L17.5283 24.9198L15.2556 24.3929L11.4481 40.8171L13.7208 41.344ZM16.3919 25.8228H23.3598V23.4899H16.3919V25.8228ZM23.3598 25.8228C24.8117 25.8228 25.8192 26.1798 26.5139 26.7668L28.0195 24.9847C26.7898 23.9458 25.1927 23.4899 23.3598 23.4899V25.8228ZM26.5215 26.7731C27.1891 27.3276 27.5685 28.1181 27.5685 29.3099H29.9015C29.9015 27.5486 29.302 26.0497 28.012 24.9784L26.5215 26.7731ZM27.5685 29.3099C27.5685 30.3016 27.3403 31.0849 26.9344 31.7122L28.8931 32.9796C29.5822 31.9146 29.9015 30.6739 29.9015 29.3099H27.5685ZM26.9402 31.7033C26.514 32.349 25.9307 32.8612 25.1598 33.2399L26.1884 35.3339C27.3087 34.7836 28.2185 34.0017 28.8873 32.9884L26.9402 31.7033ZM25.1675 33.2362C24.3971 33.6076 23.4894 33.8345 22.4241 33.8937L22.5535 36.223C23.8771 36.1495 25.093 35.8621 26.1807 35.3377L25.1675 33.2362ZM22.2131 33.9249L21.2923 34.1489L21.8437 36.4158L22.7645 36.1918L22.2131 33.9249ZM21.568 34.1158H17.7606V36.4488H21.568V34.1158ZM18.8975 35.5433L19.5943 32.5073L17.3204 31.9854L16.6237 35.0214L18.8975 35.5433ZM18.4574 33.4128H21.6178V31.0798H18.4574V33.4128ZM21.6178 33.4128C22.3625 33.4128 23.0741 33.2826 23.6988 32.9578L22.6225 30.8879C22.4178 30.9943 22.1008 31.0798 21.6178 31.0798V33.4128ZM23.6823 32.9662C24.2936 32.6605 24.7971 32.2173 25.1525 31.6335L23.1597 30.4204C23.0505 30.5997 22.8904 30.7538 22.639 30.8795L23.6823 32.9662ZM25.1637 31.6147C25.5047 31.0302 25.671 30.3863 25.671 29.708H23.338C23.338 29.992 23.272 30.2274 23.1485 30.4392L25.1637 31.6147ZM25.671 29.708C25.671 28.8032 25.355 27.9301 24.5383 27.3747L23.2264 29.304C23.257 29.3247 23.272 29.3426 23.287 29.3757C23.3064 29.4185 23.338 29.5177 23.338 29.708H25.671ZM24.5639 27.3927C23.9034 26.9171 23.1159 26.7249 22.2897 26.7249V29.0579C22.7575 29.0579 23.0318 29.1643 23.2008 29.286L24.5639 27.3927ZM22.2897 26.7249H19.8261V29.0579H22.2897V26.7249ZM18.6893 27.6297L15.6533 40.8189L17.9268 41.3422L20.9628 28.1531L18.6893 27.6297ZM16.7901 39.9141H12.5845V42.2471H16.7901V39.9141ZM24.0827 40.6819L21.4947 33.5648L19.3022 34.362L21.8902 41.4792L24.0827 40.6819ZM20.5758 35.1163L24.4579 34.5191L24.1031 32.2132L20.2211 32.8105L20.5758 35.1163ZM23.1951 33.7933L26.231 41.5077L28.402 40.6534L25.366 32.939L23.1951 33.7933ZM27.3165 39.9141H22.9865V42.2471H27.3165V39.9141ZM33.8907 40.4336L33.3136 41.4473L33.3228 41.4525L33.3321 41.4576L33.8907 40.4336ZM31.651 37.8206L32.7458 37.4181L31.651 37.8206ZM31.5763 33.7892L30.4406 33.5231L30.4405 33.5234L31.5763 33.7892ZM33.7165 24.6563V23.4899H32.7917L32.5807 24.3902L33.7165 24.6563ZM37.9967 24.6563L39.1341 24.9152L39.4586 23.4899H37.9967V24.6563ZM35.7819 34.3865L34.6445 34.1275L34.6421 34.1387L35.7819 34.3865ZM35.7819 36.3524L34.6655 36.6907L34.6685 36.7003L35.7819 36.3524ZM36.7027 37.5718L36.0812 38.5589L36.0945 38.5673L36.108 38.5753L36.7027 37.5718ZM40.3857 37.1487L39.5226 36.364L39.516 36.3713L39.5095 36.3787L40.3857 37.1487ZM41.5055 34.7348L42.6412 35.001L42.6418 34.9986L41.5055 34.7348ZM43.8447 24.6563V23.4899H42.918L42.7084 24.3926L43.8447 24.6563ZM48.1001 24.6563L49.2365 24.9197L49.5678 23.4899H48.1001V24.6563ZM45.736 34.8593L44.5996 34.596L44.5988 34.5996L45.736 34.8593ZM43.148 39.687L43.9186 40.5627L43.9251 40.5569L43.148 39.687ZM37.9469 40.1629C36.4778 40.1629 35.3302 39.89 34.4492 39.4095L33.3321 41.4576C34.641 42.1716 36.1977 42.4959 37.9469 42.4959V40.1629ZM34.4677 39.4198C33.6203 38.9374 33.0623 38.2788 32.7458 37.4181L30.5562 38.2231C31.0692 39.6187 32.0043 40.702 33.3136 41.4473L34.4677 39.4198ZM32.7458 37.4181C32.432 36.5644 32.3822 35.4648 32.7121 34.055L30.4405 33.5234C30.0405 35.2326 30.0405 36.8206 30.5562 38.2231L32.7458 37.4181ZM32.7121 34.0553L34.8522 24.9225L32.5807 24.3902L30.4406 33.5231L32.7121 34.0553ZM33.7165 25.8228H37.9967V23.4899H33.7165V25.8228ZM36.8593 24.3974L34.6445 34.1276L36.9193 34.6453L39.1341 24.9152L36.8593 24.3974ZM34.6421 34.1387C34.4487 35.0282 34.4248 35.8962 34.6656 36.6907L36.8983 36.0141C36.8073 35.7137 36.7834 35.271 36.9218 34.6343L34.6421 34.1387ZM34.6685 36.7003C34.9126 37.4814 35.3859 38.1211 36.0812 38.5589L37.3242 36.5846C37.1237 36.4584 36.9831 36.2852 36.8953 36.0044L34.6685 36.7003ZM36.108 38.5753C36.7749 38.9704 37.5392 39.1364 38.3451 39.1364V36.8034C37.857 36.8034 37.5264 36.7039 37.2974 36.5682L36.108 38.5753ZM38.3451 39.1364C39.4843 39.1364 40.5139 38.7699 41.2619 37.9187L39.5095 36.3787C39.2953 36.6224 38.9645 36.8034 38.3451 36.8034V39.1364ZM41.2488 37.9334C41.9285 37.1857 42.3671 36.1709 42.6412 35.001L40.3698 34.4687C40.1463 35.4223 39.8383 36.0168 39.5226 36.364L41.2488 37.9334ZM42.6418 34.9986L44.981 24.9201L42.7084 24.3926L40.3692 34.4711L42.6418 34.9986ZM43.8447 25.8228H48.1001V23.4899H43.8447V25.8228ZM46.9637 24.393L44.5996 34.596L46.8724 35.1226L49.2365 24.9197L46.9637 24.393ZM44.5988 34.5996C44.1557 36.5401 43.388 37.9084 42.3708 38.8171L43.9251 40.5569C45.3964 39.2425 46.3541 37.3923 46.8732 35.119L44.5988 34.5996ZM42.3773 38.8113C41.4096 39.6629 39.9843 40.1629 37.9469 40.1629V42.4959C40.3558 42.4959 42.3978 41.901 43.9186 40.5627L42.3773 38.8113ZM49.0714 41.0806L47.935 40.8171L47.6036 42.2471H49.0714V41.0806ZM52.8788 24.6563V23.4899H51.9518L51.7425 24.3929L52.8788 24.6563ZM57.4577 24.6563L58.5706 24.3068L58.314 23.4899H57.4577V24.6563ZM60.2946 33.6897L61.4212 33.3872L61.4149 33.3635L61.4075 33.3402L60.2946 33.6897ZM61.0163 36.3773L59.8897 36.6798L60.1217 37.5438H61.0163V36.3773ZM61.0412 36.3773V37.5438H61.9948L62.1844 36.6092L61.0412 36.3773ZM61.738 32.9431L60.6015 32.6803L60.5979 32.6957L60.5948 32.7112L61.738 32.9431ZM63.6541 24.6563V23.4899H62.7266L62.5176 24.3936L63.6541 24.6563ZM67.4118 24.6563L68.5481 24.9198L68.8796 23.4899H67.4118V24.6563ZM63.6044 41.0806V42.2471H64.5314L64.7407 41.344L63.6044 41.0806ZM59.1001 41.0806L57.9926 41.4466L58.2571 42.2471H59.1001V41.0806ZM56.1637 32.1966L55.0397 32.5088L55.0473 32.5359L55.0561 32.5626L56.1637 32.1966ZM55.4171 29.509L56.5411 29.1968L56.3038 28.3425H55.4171V29.509ZM55.3674 29.509V28.3425H54.4011L54.2212 29.2919L55.3674 29.509ZM54.7452 32.7938L55.8825 33.0534L55.8873 33.0322L55.8913 33.0109L54.7452 32.7938ZM52.854 41.0806V42.2471H53.7842L53.9912 41.3401L52.854 41.0806ZM50.2078 41.344L54.0152 24.9198L51.7425 24.3929L47.935 40.8171L50.2078 41.344ZM52.8788 25.8228H57.4577V23.4899H52.8788V25.8228ZM56.3448 25.0059L59.1817 34.0392L61.4075 33.3402L58.5706 24.3068L56.3448 25.0059ZM59.168 33.9922L59.8897 36.6798L62.1429 36.0748L61.4212 33.3872L59.168 33.9922ZM61.0163 37.5438H61.0412V35.2108H61.0163V37.5438ZM62.1844 36.6092L62.8812 33.1751L60.5948 32.7112L59.898 36.1453L62.1844 36.6092ZM62.8745 33.2059L64.7906 24.9191L62.5176 24.3936L60.6015 32.6803L62.8745 33.2059ZM63.6541 25.8228H67.4118V23.4899H63.6541V25.8228ZM66.2754 24.3929L62.468 40.8171L64.7407 41.344L68.5481 24.9198L66.2754 24.3929ZM63.6044 39.9141H59.1001V42.2471H63.6044V39.9141ZM60.2077 40.7145L57.2712 31.8305L55.0561 32.5626L57.9926 41.4466L60.2077 40.7145ZM57.2876 31.8844L56.5411 29.1968L54.2932 29.8212L55.0397 32.5088L57.2876 31.8844ZM55.4171 28.3425H55.3674V30.6754H55.4171V28.3425ZM54.2212 29.2919L53.5991 32.5767L55.8913 33.0109L56.5135 29.726L54.2212 29.2919ZM53.608 32.5342L51.7167 40.821L53.9912 41.3401L55.8825 33.0534L53.608 32.5342ZM52.854 39.9141H49.0714V42.2471H52.854V39.9141ZM68.4206 41.0806L67.2842 40.8171L66.9528 42.2471H68.4206V41.0806ZM72.228 24.6563V23.4899H71.301L71.0917 24.3929L72.228 24.6563ZM83.1029 25.8757L82.35 26.7668L82.3576 26.7731L83.1029 25.8757ZM83.7499 32.3459L84.7235 32.9884L84.7292 32.9796L83.7499 32.3459ZM81.5102 34.2869L82.0168 35.3377L82.0245 35.3339L81.5102 34.2869ZM78.3249 35.0584L78.2602 33.8937L78.1533 33.8996L78.0492 33.9249L78.3249 35.0584ZM77.4042 35.2823V36.4488H77.544L77.6799 36.4158L77.4042 35.2823ZM73.5967 35.2823L72.4598 35.0214L72.1322 36.4488H73.5967V35.2823ZM74.2935 32.2463V31.0798H73.3644L73.1566 31.9854L74.2935 32.2463ZM78.9968 31.9228L78.4751 30.8795L78.4669 30.8836L78.4586 30.8879L78.9968 31.9228ZM79.9922 31.027L80.9886 31.6335L80.9943 31.6241L80.9998 31.6147L79.9922 31.027ZM79.7185 28.3394L79.0369 29.286L79.0496 29.2952L79.0625 29.304L79.7185 28.3394ZM75.6622 27.8914V26.7249H74.7337L74.5254 27.6297L75.6622 27.8914ZM72.6262 41.0806V42.2471H73.5547L73.763 41.3422L72.6262 41.0806ZM78.8226 41.0806L77.7263 41.4792L78.0056 42.2471H78.8226V41.0806ZM76.2346 33.9634L76.0572 32.8105L74.6527 33.0266L75.1383 34.362L76.2346 33.9634ZM80.1166 33.3662L81.2021 32.939L80.8607 32.0715L79.9393 32.2132L80.1166 33.3662ZM83.1526 41.0806V42.2471H84.8653L84.2381 40.6534L83.1526 41.0806ZM69.557 41.344L73.3644 24.9198L71.0917 24.3929L67.2842 40.8171L69.557 41.344ZM72.228 25.8228H79.1959V23.4899H72.228V25.8228ZM79.1959 25.8228C80.6478 25.8228 81.6553 26.1798 82.3501 26.7668L83.8557 24.9847C82.626 23.9458 81.0288 23.4899 79.1959 23.4899V25.8228ZM82.3576 26.7731C83.0252 27.3276 83.4046 28.1181 83.4046 29.3099H85.7376C85.7376 27.5486 85.1381 26.0497 83.8481 24.9784L82.3576 26.7731ZM83.4046 29.3099C83.4046 30.3016 83.1764 31.0849 82.7705 31.7122L84.7292 32.9796C85.4183 31.9146 85.7376 30.6739 85.7376 29.3099H83.4046ZM82.7763 31.7033C82.3501 32.349 81.7668 32.8612 80.9959 33.2399L82.0245 35.3339C83.1449 34.7836 84.0547 34.0017 84.7234 32.9884L82.7763 31.7033ZM81.0036 33.2362C80.2332 33.6076 79.3256 33.8345 78.2602 33.8937L78.3896 36.223C79.7132 36.1495 80.9291 35.8621 82.0168 35.3377L81.0036 33.2362ZM78.0492 33.9249L77.1285 34.1489L77.6799 36.4158L78.6006 36.1918L78.0492 33.9249ZM77.4042 34.1158H73.5967V36.4488H77.4042V34.1158ZM74.7337 35.5433L75.4304 32.5073L73.1566 31.9854L72.4598 35.0214L74.7337 35.5433ZM74.2935 33.4128H77.4539V31.0798H74.2935V33.4128ZM77.4539 33.4128C78.1986 33.4128 78.9102 33.2826 79.535 32.9578L78.4586 30.8879C78.2539 30.9943 77.9369 31.0798 77.4539 31.0798V33.4128ZM79.5185 32.9662C80.1297 32.6605 80.6332 32.2173 80.9886 31.6335L78.9958 30.4204C78.8867 30.5997 78.7266 30.7538 78.4751 30.8795L79.5185 32.9662ZM80.9998 31.6147C81.3408 31.0302 81.5071 30.3863 81.5071 29.708H79.1741C79.1741 29.992 79.1082 30.2274 78.9846 30.4392L80.9998 31.6147ZM81.5071 29.708C81.5071 28.8032 81.1911 27.9301 80.3744 27.3747L79.0625 29.304C79.0931 29.3247 79.1081 29.3426 79.1231 29.3757C79.1426 29.4185 79.1741 29.5177 79.1741 29.708H81.5071ZM80.4001 27.3927C79.7396 26.9171 78.952 26.7249 78.1258 26.7249V29.0579C78.5937 29.0579 78.8679 29.1643 79.0369 29.286L80.4001 27.3927ZM78.1258 26.7249H75.6622V29.0579H78.1258V26.7249ZM74.5254 27.6297L71.4894 40.8189L73.763 41.3422L76.799 28.1531L74.5254 27.6297ZM72.6262 39.9141H68.4206V42.2471H72.6262V39.9141ZM79.9189 40.6819L77.3308 33.5648L75.1383 34.362L77.7263 41.4792L79.9189 40.6819ZM76.4119 35.1163L80.294 34.5191L79.9393 32.2132L76.0572 32.8105L76.4119 35.1163ZM79.0312 33.7933L82.0672 41.5077L84.2381 40.6534L81.2021 32.939L79.0312 33.7933ZM83.1526 39.9141H78.8226V42.2471H83.1526V39.9141Z" fill="#FF8800" mask="url(#path-1-outside-1_117_10)"/>
<mask id="path-3-outside-2_117_10" maskUnits="userSpaceOnUse" x="16.8423" y="5" width="47" height="20" fill="black">
<rect fill="white" x="16.8423" y="5" width="47" height="20"/>
<path d="M27.2784 6.57578L23.4709 23H19.1907L22.9981 6.57578H27.2784ZM45.6289 6.57578L44.8325 9.88551H39.6564L36.6453 23H32.365L35.3762 9.88551H30.1503L30.9466 6.57578H45.6289ZM45.4465 23L49.2539 6.57578H61.8707L61.0495 9.88551H52.7627L51.9913 13.2201H58.561L57.8144 16.3308H51.2696L50.4982 19.6903H59.0836L58.2872 23H45.4465Z"/>
</mask>
<path d="M27.2784 6.57578L23.4709 23H19.1907L22.9981 6.57578H27.2784ZM45.6289 6.57578L44.8325 9.88551H39.6564L36.6453 23H32.365L35.3762 9.88551H30.1503L30.9466 6.57578H45.6289ZM45.4465 23L49.2539 6.57578H61.8707L61.0495 9.88551H52.7627L51.9913 13.2201H58.561L57.8144 16.3308H51.2696L50.4982 19.6903H59.0836L58.2872 23H45.4465Z" fill="#FF8800"/>
<path d="M27.2784 6.57578L28.4147 6.83921L28.7462 5.40929H27.2784V6.57578ZM23.4709 23V24.1665H24.3979L24.6073 23.2634L23.4709 23ZM19.1907 23L18.0543 22.7366L17.7228 24.1665H19.1907V23ZM22.9981 6.57578V5.40929H22.0711L21.8618 6.31235L22.9981 6.57578ZM26.142 6.31235L22.3346 22.7366L24.6073 23.2634L28.4147 6.83921L26.142 6.31235ZM23.4709 21.8335H19.1907V24.1665H23.4709V21.8335ZM20.327 23.2634L24.1345 6.83921L21.8618 6.31235L18.0543 22.7366L20.327 23.2634ZM22.9981 7.74227H27.2784V5.40929H22.9981V7.74227ZM45.6289 6.57578L46.763 6.84865L47.1093 5.40929H45.6289V6.57578ZM44.8325 9.88551V11.052H45.7516L45.9667 10.1584L44.8325 9.88551ZM39.6564 9.88551V8.71902H38.7274L38.5195 9.62447L39.6564 9.88551ZM36.6453 23V24.1665H37.5743L37.7822 23.261L36.6453 23ZM32.365 23L31.2281 22.739L30.9004 24.1665H32.365V23ZM35.3762 9.88551L36.5131 10.1465L36.8408 8.71902H35.3762V9.88551ZM30.1503 9.88551L29.0161 9.61264L28.6698 11.052H30.1503V9.88551ZM30.9466 6.57578V5.40929H30.0275L29.8125 6.30291L30.9466 6.57578ZM44.4947 6.30291L43.6984 9.61264L45.9667 10.1584L46.763 6.84865L44.4947 6.30291ZM44.8325 8.71902H39.6564V11.052H44.8325V8.71902ZM38.5195 9.62447L35.5084 22.739L37.7822 23.261L40.7933 10.1465L38.5195 9.62447ZM36.6453 21.8335H32.365V24.1665H36.6453V21.8335ZM33.502 23.261L36.5131 10.1465L34.2392 9.62447L31.2281 22.739L33.502 23.261ZM35.3762 8.71902H30.1503V11.052H35.3762V8.71902ZM31.2844 10.1584L32.0807 6.84865L29.8125 6.30291L29.0161 9.61264L31.2844 10.1584ZM30.9466 7.74227H45.6289V5.40929H30.9466V7.74227ZM45.4465 23L44.3101 22.7366L43.9786 24.1665H45.4465V23ZM49.2539 6.57578V5.40929H48.3269L48.1176 6.31235L49.2539 6.57578ZM61.8707 6.57578L63.0029 6.85669L63.362 5.40929H61.8707V6.57578ZM61.0495 9.88551V11.052H61.9619L62.1817 10.1664L61.0495 9.88551ZM52.7627 9.88551V8.71902H51.8353L51.6263 9.62259L52.7627 9.88551ZM51.9913 13.2201L50.8548 12.9572L50.5241 14.3866H51.9913V13.2201ZM58.561 13.2201L59.6953 13.4924L60.0406 12.0536H58.561V13.2201ZM57.8144 16.3308V17.4973H58.7341L58.9487 16.603L57.8144 16.3308ZM51.2696 16.3308V15.1643H50.3406L50.1327 16.0697L51.2696 16.3308ZM50.4982 19.6903L49.3613 19.4292L49.0335 20.8568H50.4982V19.6903ZM59.0836 19.6903L60.2177 19.9631L60.564 18.5238H59.0836V19.6903ZM58.2872 23V24.1665H59.2064L59.4214 23.2729L58.2872 23ZM46.5828 23.2634L50.3903 6.83921L48.1176 6.31235L44.3101 22.7366L46.5828 23.2634ZM49.2539 7.74227H61.8707V5.40929H49.2539V7.74227ZM60.7385 6.29487L59.9173 9.6046L62.1817 10.1664L63.0029 6.85669L60.7385 6.29487ZM61.0495 8.71902H52.7627V11.052H61.0495V8.71902ZM51.6263 9.62259L50.8548 12.9572L53.1278 13.483L53.8992 10.1484L51.6263 9.62259ZM51.9913 14.3866H58.561V12.0536H51.9913V14.3866ZM57.4267 12.9479L56.6801 16.0585L58.9487 16.603L59.6953 13.4924L57.4267 12.9479ZM57.8144 15.1643H51.2696V17.4973H57.8144V15.1643ZM50.1327 16.0697L49.3613 19.4292L51.6351 19.9513L52.4065 16.5918L50.1327 16.0697ZM50.4982 20.8568H59.0836V18.5238H50.4982V20.8568ZM57.9494 19.4174L57.1531 22.7271L59.4214 23.2729L60.2177 19.9631L57.9494 19.4174ZM58.2872 21.8335H45.4465V24.1665H58.2872V21.8335Z" fill="#FF8800" mask="url(#path-3-outside-2_117_10)"/>
<path fill-rule="evenodd" clip-rule="evenodd" d="M3.78725 8.19849C3.78725 8.19849 5.93412 10.1205 7.44104 8.97638C9.34048 7.53421 7.95901 5.7876 7.95901 5.7876L13.6708 5.81861C13.6708 5.81861 17.5844 5.81863 18.6208 9.42286C19.6812 13.1104 16.5853 15.3431 16.5853 15.3431C16.5853 15.3431 18.9301 16.8799 17.4664 20.8448C16.0687 24.6309 10.81 24.5408 10.81 24.5408H0L3.78725 8.19849ZM8.07392 17.9243H10.7672C10.7672 17.9243 11.0665 17.9259 11.2 18.0388C11.2227 18.0579 11.5196 18.5017 11.0542 18.9228C10.7672 19.1825 9.91964 19.1825 9.91964 19.1825H7.77803L8.07392 17.9243ZM11.5189 11.2487H9.52133L9.30913 12.5342H10.8857C10.8857 12.5342 11.6483 12.4784 11.8791 12.197C12.2024 11.8026 12.075 11.3814 12.075 11.3814C12.075 11.3814 11.8608 11.2486 11.5189 11.2487Z" fill="#FF8800"/>
</svg>
